<svg width="88" height="88" viewBox="0 0 88 88" fill="none" xmlns="http://www.w3.org/2000/svg">
<path d="M86.2153 27.3093L46.2013 0.633239C44.8355 -0.207228 43.3779 -0.214923 41.9996 0.633239L1.98554 27.3093C0.959543 27.9931 0.324448 29.2147 0.324448 30.436V57.1119C0.324448 58.3333 0.959543 59.5548 1.98572 60.2388L41.9998 86.9186C43.3656 87.7591 44.8232 87.7668 46.2014 86.9186L86.2155 60.2388C87.2415 59.555 87.8768 58.3333 87.8768 57.1119V30.436C87.8766 29.2147 87.2415 27.9931 86.2153 27.3093ZM47.8625 10.7953L77.3235 30.436L64.1809 39.2304L47.8625 28.3351V10.7953ZM40.3385 10.7953V28.3351L24.0201 39.2304L10.8776 30.436L40.3385 10.7953ZM7.84846 37.4715L17.2779 43.774L7.84846 50.0766V37.4715ZM40.3385 76.7528L10.8776 57.1121L24.0201 48.3177L40.3385 59.213V76.7528ZM44.1005 52.6661L30.8112 43.774L44.1005 34.882L57.3898 43.774L44.1005 52.6661ZM47.8625 76.7528V59.213L64.1809 48.3177L77.3235 57.1121L47.8625 76.7528ZM80.3526 50.0766L70.9231 43.774L80.3526 37.4715V50.0766Z" fill="#A11F7A"/>
</svg>
