<svg width="89" height="88" viewBox="0 0 89 88" fill="none" xmlns="http://www.w3.org/2000/svg">
<path d="M78.845 0H10.233C5.06756 0 0.87677 4.20171 0.87677 9.38056V78.1713C0.87677 83.3501 5.06756 87.5518 10.233 87.5518H78.845C84.0104 87.5518 88.2012 83.3501 88.2012 78.1713V9.38056C88.2012 4.20171 84.0104 0 78.845 0ZM54.9283 74.9858C53.2909 75.279 52.6867 74.2627 52.6867 73.4224C52.6867 72.3671 52.7257 66.9733 52.7257 62.6152C52.7257 59.5665 51.7121 57.6318 50.5231 56.6156C57.7351 55.8143 65.337 54.8176 65.337 42.3298C65.337 38.773 64.07 36.9946 62.0039 34.7081C62.3353 33.8677 63.4463 30.4086 61.6725 25.9138C58.9631 25.0734 52.7646 29.4119 52.7646 29.4119C50.1917 28.6889 47.4043 28.3175 44.6559 28.3175C41.9076 28.3175 39.1202 28.6889 36.5472 29.4119C36.5472 29.4119 30.3488 25.0734 27.6394 25.9138C25.8656 30.3891 26.9572 33.8482 27.308 34.7081C25.2419 36.9946 24.2672 38.773 24.2672 42.3298C24.2672 54.759 31.5378 55.8143 38.7499 56.6156C37.8142 57.4559 36.9761 58.9021 36.6837 60.9736C34.8319 61.8139 30.0954 63.2601 27.269 58.2572C25.4952 55.1694 22.2985 54.9153 22.2985 54.9153C19.1408 54.8762 22.0841 56.9087 22.0841 56.9087C24.1893 57.8858 25.6707 61.6381 25.6707 61.6381C27.5614 67.4423 36.6057 65.488 36.6057 65.488C36.6057 68.2045 36.6447 72.6211 36.6447 73.4224C36.6447 74.2627 36.0599 75.279 34.4031 74.9858C21.5384 70.6669 12.533 58.394 12.533 44.0495C12.533 26.1092 26.2165 12.4879 44.1102 12.4879C62.0039 12.4879 76.506 26.1092 76.506 44.0495C76.5255 58.394 67.793 70.6864 54.9283 74.9858ZM35.8065 63.0452C35.4362 63.1233 35.0853 62.967 35.0464 62.7129C35.0074 62.4198 35.2608 62.1657 35.6311 62.0876C36.0015 62.0485 36.3523 62.2048 36.3913 62.4589C36.4498 62.7129 36.1964 62.967 35.8065 63.0452ZM33.9548 62.8693C33.9548 63.1233 33.6624 63.3383 33.2726 63.3383C32.8438 63.3774 32.5514 63.1624 32.5514 62.8693C32.5514 62.6152 32.8438 62.4002 33.2336 62.4002C33.6039 62.3611 33.9548 62.5761 33.9548 62.8693ZM31.2844 62.6543C31.2064 62.9083 30.8166 63.0256 30.4852 62.9083C30.1149 62.8302 29.8615 62.537 29.9394 62.283C30.0174 62.0289 30.4072 61.9117 30.7386 61.9898C31.1285 62.1071 31.3819 62.4002 31.2844 62.6543ZM28.8869 61.599C28.7114 61.814 28.3411 61.7749 28.0487 61.4817C27.7563 61.2277 27.6784 60.8563 27.8733 60.6805C28.0487 60.4655 28.4191 60.5046 28.7114 60.7977C28.9648 61.0518 29.0623 61.4426 28.8869 61.599ZM27.1131 59.8206C26.9377 59.9378 26.6063 59.8206 26.3919 59.5274C26.1775 59.2343 26.1775 58.9021 26.3919 58.7653C26.6063 58.5894 26.9377 58.7262 27.1131 59.0193C27.3275 59.3125 27.3275 59.6642 27.1131 59.8206ZM25.8461 57.9249C25.6707 58.1008 25.3783 58.0031 25.1639 57.8077C24.9495 57.5536 24.9105 57.2605 25.0859 57.1237C25.2613 56.9478 25.5537 57.0455 25.7681 57.2409C25.9825 57.495 26.0215 57.7881 25.8461 57.9249ZM24.5401 56.4788C24.4622 56.6546 24.2088 56.6937 23.9944 56.5569C23.741 56.4397 23.624 56.2247 23.702 56.0488C23.7799 55.9316 23.9944 55.8729 24.2478 55.9706C24.5012 56.1074 24.6181 56.3224 24.5401 56.4788Z" fill="#b90045"/>
</svg>
