<svg width="88" height="88" viewBox="0 0 88 88" fill="none" xmlns="http://www.w3.org/2000/svg">
<path d="M81.6226 0H6.55861C3.11907 0 0.324448 2.83371 0.324448 6.31233V81.2395C0.324448 84.7181 3.11907 87.5518 6.55861 87.5518H81.6226C85.0621 87.5518 87.8763 84.7181 87.8763 81.2395V6.31233C87.8763 2.83371 85.0621 0 81.6226 0ZM26.7854 75.0444H13.809V33.2619H26.805V75.0444H26.7854ZM20.2972 27.5554C16.1346 27.5554 12.7732 24.1745 12.7732 20.0314C12.7732 15.8883 16.1346 12.5074 20.2972 12.5074C24.4403 12.5074 27.8212 15.8883 27.8212 20.0314C27.8212 24.194 24.4598 27.5554 20.2972 27.5554ZM75.4275 75.0444H62.4511V54.7199C62.4511 49.8733 62.3534 43.6391 55.7088 43.6391C48.947 43.6391 47.9112 48.9157 47.9112 54.3681V75.0444H34.9348V33.2619H47.3836V38.9684H47.5595C49.2988 35.6852 53.5396 32.2261 59.8519 32.2261C72.9847 32.2261 75.4275 40.8836 75.4275 52.1403V75.0444Z" fill="#b90045"/>
</svg>
