<svg width="89" height="88" viewBox="0 0 89 88" fill="none" xmlns="http://www.w3.org/2000/svg">
<path d="M88.2012 9.38056V78.1713C88.2012 83.3501 84.0104 87.5518 78.845 87.5518H30.9725C32.8827 84.3468 35.3387 79.7347 36.3133 75.963C36.8981 73.7155 39.2956 64.5499 39.2956 64.5499C40.855 67.54 45.4161 70.061 50.2697 70.061C64.7133 70.061 75.1025 56.7524 75.1025 40.2191C75.1025 24.3699 62.1988 12.5074 45.5916 12.5074C24.93 12.5074 13.9754 26.4024 13.9754 41.548C13.9754 48.5835 17.7179 57.3386 23.6825 60.1333C24.5986 60.5632 25.0664 60.3678 25.2808 59.4884C25.4368 58.8239 26.2554 55.5602 26.6063 54.0555C26.7232 53.5669 26.6648 53.1565 26.2749 52.6875C24.3062 50.2837 22.7079 45.867 22.7079 41.7435C22.7079 31.1513 30.6996 20.9108 44.3246 20.9108C56.0783 20.9108 64.3234 28.9429 64.3234 40.4341C64.3234 53.4105 57.7936 62.4002 49.2756 62.4002C44.578 62.4002 41.0694 58.5112 42.1805 53.7232C43.5254 48.0167 46.1373 41.8607 46.1373 37.7372C46.1373 27.3795 31.4208 28.8061 31.4208 42.6229C31.4208 46.8637 32.8438 49.756 32.8438 49.756C26.7232 75.7089 25.8071 76.0411 27.0741 87.3955L27.5029 87.5518H10.233C5.06756 87.5518 0.87677 83.3501 0.87677 78.1713V9.38056C0.87677 4.20171 5.06756 0 10.233 0H78.845C84.0104 0 88.2012 4.20171 88.2012 9.38056Z" fill="#A11F7A"/>
</svg>
