<svg width="88" height="88" viewBox="0 0 88 88" fill="none" xmlns="http://www.w3.org/2000/svg">
<path d="M77.9683 0H9.35619C4.19079 0 0 4.20171 0 9.38056V78.1713C0 83.3501 4.19079 87.5518 9.35619 87.5518H77.9683C83.1337 87.5518 87.3244 83.3501 87.3244 78.1713V9.38056C87.3244 4.20171 83.1337 0 77.9683 0ZM68.4366 31.034C68.4756 31.5812 68.4756 32.1479 68.4756 32.6951C68.4756 49.6388 55.6109 69.162 32.1034 69.162C24.8524 69.162 18.1276 67.0514 12.4749 63.4165C13.508 63.5337 14.5021 63.5728 15.5547 63.5728C21.5387 63.5728 27.0355 61.5404 31.4212 58.1008C25.8075 57.9836 21.0904 54.29 19.4726 49.2088C21.4413 49.502 23.215 49.502 25.2422 48.9743C19.3946 47.7822 15.0089 42.6229 15.0089 36.3887V36.2324C16.7047 37.19 18.6929 37.7763 20.7785 37.8545C19.0251 36.6851 17.5877 35.0987 16.5945 33.2368C15.6014 31.3749 15.0834 29.2955 15.0869 27.1841C15.0869 24.7998 15.7106 22.611 16.8217 20.7154C23.1176 28.4934 32.5712 33.5746 43.1749 34.1218C41.3622 25.4252 47.853 18.3703 55.6498 18.3703C59.3338 18.3703 62.6475 19.9141 64.9865 22.4156C67.8714 21.8684 70.6392 20.7936 73.0952 19.3279C72.1401 22.2984 70.1324 24.7998 67.4815 26.3828C70.0545 26.1092 72.5495 25.3861 74.8495 24.3894C73.1147 26.9496 70.9316 29.2165 68.4366 31.034Z" fill="#b90045"/>
</svg>
